<svg width="167" height="24" viewBox="0 0 167 24" fill="none" xmlns="http://www.w3.org/2000/svg">
<path d="M9.66788 20.9543C8.83488 20.9543 8.12037 20.6418 7.52437 20.0168C6.92837 19.3918 6.59146 18.6793 6.51362 17.8793C5.52746 17.7903 4.70312 17.3763 4.04063 16.6373C3.37813 15.8985 3.04688 15.0078 3.04688 13.9651C3.04688 13.6066 3.09271 13.2563 3.18438 12.9141C3.27604 12.5719 3.41354 12.245 3.59688 11.9333C3.41354 11.6362 3.27604 11.3205 3.18438 10.9863C3.09271 10.652 3.04688 10.2955 3.04688 9.91685C3.04688 8.92818 3.38996 8.07335 4.07613 7.35235C4.76229 6.63135 5.58288 6.20976 6.53787 6.0876C6.56888 5.2376 6.88788 4.51676 7.49487 3.9251C8.10171 3.33343 8.83063 3.0376 9.68163 3.0376C10.1585 3.0376 10.583 3.12593 10.9551 3.3026C11.3271 3.47943 11.6758 3.72718 12.0011 4.04585C12.3316 3.73201 12.6789 3.48551 13.0429 3.30635C13.4067 3.12718 13.8261 3.0376 14.3011 3.0376C15.1373 3.0376 15.856 3.3341 16.4574 3.9271C17.0587 4.52026 17.383 5.24185 17.4304 6.09185C18.3914 6.19185 19.2205 6.60318 19.9179 7.32585C20.615 8.04868 20.9636 8.91126 20.9636 9.9136C20.9636 10.2964 20.9136 10.6573 20.8136 10.9961C20.7136 11.3349 20.5747 11.655 20.3969 11.9563C20.5747 12.2743 20.7136 12.6123 20.8136 12.9703C20.9136 13.3282 20.9636 13.6818 20.9636 14.0313C20.9636 15.0855 20.6303 15.9703 19.9636 16.6856C19.297 17.4008 18.472 17.7987 17.4886 17.8793C17.4053 18.6793 17.0659 19.3918 16.4704 20.0168C15.875 20.6418 15.163 20.9543 14.3344 20.9543C13.8539 20.9543 13.4303 20.871 13.0636 20.7043C12.697 20.5378 12.3428 20.2933 12.0011 19.9708C11.654 20.2932 11.2984 20.5377 10.9344 20.7043C10.5705 20.871 10.1484 20.9543 9.66788 20.9543ZM12.7969 6.08335V17.9168C12.7969 18.3217 12.9493 18.6653 13.2541 18.9476C13.5588 19.2298 13.9249 19.3708 14.3524 19.3708C14.7627 19.3708 15.1179 19.2008 15.4179 18.8606C15.7179 18.5203 15.8831 18.1348 15.9136 17.7043C15.5333 17.5765 15.1838 17.3987 14.8651 17.1708C14.5463 16.9432 14.2694 16.6654 14.0344 16.3376C13.901 16.1543 13.8518 15.9578 13.8866 15.7481C13.9213 15.5383 14.0317 15.3667 14.2179 15.2333C14.4039 15.1 14.6018 15.0508 14.8116 15.0856C15.0213 15.1203 15.1928 15.2293 15.3261 15.4126C15.5343 15.7096 15.7965 15.9353 16.1129 16.0896C16.4294 16.2438 16.7699 16.3208 17.1344 16.3208C17.7572 16.3208 18.2872 16.1075 18.7244 15.6808C19.1617 15.254 19.3804 14.7048 19.3804 14.0333C19.3804 13.8945 19.3658 13.7528 19.3366 13.6083C19.3075 13.464 19.2762 13.3168 19.2429 13.1668C18.9509 13.3695 18.6285 13.5237 18.2756 13.6293C17.923 13.7348 17.5537 13.7876 17.1679 13.7876C16.9429 13.7876 16.7554 13.7126 16.6054 13.5626C16.4554 13.4126 16.3804 13.2251 16.3804 13.0001C16.3804 12.7751 16.4554 12.5862 16.6054 12.4333C16.7554 12.2807 16.9429 12.2043 17.1679 12.2043C17.786 12.2043 18.3093 11.9798 18.7376 11.5308C19.1661 11.0818 19.3804 10.5438 19.3804 9.91685C19.3804 9.30518 19.1491 8.78001 18.6866 8.34135C18.2241 7.90268 17.6998 7.6681 17.1136 7.6376C16.9428 8.00976 16.7062 8.3351 16.4039 8.6136C16.1015 8.89193 15.759 9.10268 15.3761 9.24585C15.165 9.33202 14.9629 9.32785 14.7699 9.23335C14.5769 9.13901 14.4456 8.98626 14.3761 8.7751C14.3066 8.56393 14.3156 8.3591 14.4031 8.1606C14.4906 7.96193 14.64 7.82651 14.8511 7.75435C15.1456 7.65701 15.3852 7.46768 15.5699 7.18635C15.7545 6.90501 15.8469 6.58593 15.8469 6.2291C15.8469 5.7876 15.6968 5.40918 15.3966 5.09385C15.0965 4.77851 14.7375 4.62085 14.3196 4.62085C13.9018 4.62085 13.5435 4.76276 13.2449 5.0466C12.9462 5.3306 12.7969 5.67618 12.7969 6.08335ZM11.2136 17.9168V6.08335C11.2136 5.67618 11.0663 5.3306 10.7716 5.0466C10.4771 4.76276 10.1154 4.62085 9.68638 4.62085C9.26838 4.62085 8.90729 4.77868 8.60312 5.09435C8.29896 5.40985 8.14687 5.7916 8.14687 6.2396C8.14687 6.5911 8.23371 6.90435 8.40737 7.17935C8.58104 7.45435 8.81504 7.64043 9.10937 7.7376C9.32054 7.80976 9.47404 7.9461 9.56987 8.1466C9.66571 8.34693 9.68029 8.54535 9.61362 8.74185C9.52612 8.95185 9.38271 9.1071 9.18338 9.2076C8.98404 9.3081 8.77888 9.31535 8.56788 9.22935C8.18504 9.09718 7.84521 8.89193 7.54838 8.6136C7.25154 8.3351 7.02054 8.00976 6.85538 7.6376C6.27204 7.68476 5.75537 7.92293 5.30537 8.3521C4.85537 8.78126 4.63037 9.30285 4.63037 9.91685C4.63037 10.5438 4.84371 11.0818 5.27038 11.5308C5.69721 11.9798 6.21854 12.2043 6.83437 12.2043C7.05937 12.2043 7.24829 12.2807 7.40112 12.4333C7.55396 12.5862 7.63038 12.7751 7.63038 13.0001C7.63038 13.2251 7.55396 13.4126 7.40112 13.5626C7.24829 13.7126 7.05937 13.7876 6.83437 13.7876C6.45337 13.7876 6.08804 13.7341 5.73838 13.6271C5.38854 13.5203 5.06638 13.3682 4.77188 13.1708C4.72188 13.3042 4.68579 13.4389 4.66363 13.5751C4.64146 13.7113 4.63037 13.8473 4.63037 13.9833C4.63037 14.6548 4.84479 15.2123 5.27362 15.6558C5.70262 16.0992 6.22846 16.3208 6.85113 16.3208C7.20662 16.3208 7.54488 16.2409 7.86587 16.0811C8.18671 15.9213 8.45121 15.6984 8.65937 15.4126C8.79271 15.2348 8.96562 15.1271 9.17812 15.0896C9.39062 15.0521 9.58721 15.1 9.76788 15.2333C9.94838 15.3667 10.0574 15.5402 10.0949 15.7538C10.1324 15.9673 10.0845 16.1619 9.95112 16.3376C9.71612 16.6648 9.43921 16.942 9.12037 17.1693C8.80171 17.3967 8.45779 17.5763 8.08862 17.7083C8.11363 18.1333 8.27679 18.5167 8.57812 18.8583C8.87962 19.2 9.24288 19.3708 9.66788 19.3708C10.0974 19.3708 10.4624 19.2298 10.7629 18.9476C11.0634 18.6653 11.2136 18.3217 11.2136 17.9168Z" fill="black"/>
<path d="M42.541 14.1816C42.541 14.5788 42.4759 14.9499 42.3457 15.2949C42.2155 15.64 42.0365 15.9557 41.8086 16.2422C41.5807 16.5221 41.3138 16.7728 41.0078 16.9941C40.7083 17.2155 40.3828 17.401 40.0312 17.5508C39.6862 17.7005 39.3281 17.8145 38.957 17.8926C38.5859 17.9642 38.2214 18 37.8633 18H29.5918V3.9375H37.1504C37.4824 3.9375 37.8307 3.96354 38.1953 4.01562C38.5599 4.0612 38.9147 4.13607 39.2598 4.24023C39.6113 4.3444 39.9434 4.48112 40.2559 4.65039C40.5749 4.81966 40.8516 5.02799 41.0859 5.27539C41.3268 5.51628 41.5156 5.79622 41.6523 6.11523C41.7956 6.43424 41.8672 6.79883 41.8672 7.20898C41.8672 7.59961 41.7891 7.95443 41.6328 8.27344C41.4766 8.59245 41.265 8.87891 40.998 9.13281C40.7376 9.38021 40.4349 9.60156 40.0898 9.79688C39.7513 9.98568 39.3932 10.1517 39.0156 10.2949C39.4909 10.4251 39.9401 10.5977 40.3633 10.8125C40.793 11.0273 41.1673 11.291 41.4863 11.6035C41.8118 11.916 42.069 12.2871 42.2578 12.7168C42.4466 13.14 42.541 13.6283 42.541 14.1816ZM37.9316 7.55078C37.9316 6.75651 37.7201 6.17708 37.2969 5.8125C36.8802 5.44792 36.2845 5.26562 35.5098 5.26562H33.4688V9.82617H35.1777C35.5293 9.82617 35.8711 9.78385 36.2031 9.69922C36.5352 9.60807 36.8281 9.47135 37.082 9.28906C37.3424 9.10026 37.5475 8.86263 37.6973 8.57617C37.8535 8.28971 37.9316 7.94792 37.9316 7.55078ZM38.6152 13.9375C38.6152 13.5534 38.5664 13.1953 38.4688 12.8633C38.3711 12.5247 38.2214 12.235 38.0195 11.9941C37.8177 11.7467 37.5638 11.5547 37.2578 11.418C36.9583 11.2747 36.6035 11.2031 36.1934 11.2031H33.4688V16.6328H35.8516C36.2487 16.6328 36.6165 16.5677 36.9551 16.4375C37.2936 16.3073 37.5866 16.125 37.834 15.8906C38.0814 15.6562 38.2734 15.373 38.4102 15.041C38.5469 14.709 38.6152 14.3411 38.6152 13.9375ZM54.123 7.7168L52.2676 10.793C52.1895 10.5326 52.0885 10.2396 51.9648 9.91406C51.8411 9.58854 51.6882 9.28581 51.5059 9.00586C51.3236 8.7194 51.1055 8.48177 50.8516 8.29297C50.5977 8.09766 50.3047 8 49.9727 8C49.6667 8 49.3997 8.07812 49.1719 8.23438C48.9505 8.39062 48.7617 8.5957 48.6055 8.84961C48.4492 9.09701 48.319 9.38021 48.2148 9.69922C48.1172 10.0117 48.0391 10.3307 47.9805 10.6562C47.9284 10.9753 47.8926 11.2845 47.873 11.584C47.8535 11.877 47.8438 12.1309 47.8438 12.3457V18H44.5332V6.7207H45.8027L47.1406 9.34766C47.3229 8.92448 47.5312 8.53711 47.7656 8.18555C48 7.82747 48.2702 7.52148 48.5762 7.26758C48.8822 7.00716 49.2272 6.80534 49.6113 6.66211C50.002 6.51888 50.4414 6.44727 50.9297 6.44727C51.1836 6.44727 51.4668 6.47005 51.7793 6.51562C52.0918 6.55469 52.3978 6.6263 52.6973 6.73047C52.9967 6.82812 53.2734 6.95833 53.5273 7.12109C53.7812 7.28385 53.9798 7.48242 54.123 7.7168ZM66.6328 18H63.332V16.6523C62.9414 17.1862 62.4694 17.5833 61.916 17.8438C61.3691 18.0977 60.7669 18.2246 60.1094 18.2246C59.25 18.2246 58.4818 18.0716 57.8047 17.7656C57.1276 17.4596 56.5547 17.043 56.0859 16.5156C55.6172 15.9818 55.2591 15.3568 55.0117 14.6406C54.7643 13.9245 54.6406 13.1562 54.6406 12.3359C54.6406 11.5156 54.7643 10.7474 55.0117 10.0312C55.2591 9.3151 55.6172 8.69336 56.0859 8.16602C56.5547 7.63216 57.1276 7.21224 57.8047 6.90625C58.4818 6.60026 59.25 6.44727 60.1094 6.44727C60.5456 6.44727 60.959 6.51237 61.3496 6.64258C61.7467 6.77279 62.1081 6.95833 62.4336 7.19922C62.7656 7.43359 63.0553 7.72005 63.3027 8.05859C63.5566 8.39062 63.7552 8.76172 63.8984 9.17188L65.3633 6.7207H66.6328V18ZM63.3125 12.3359C63.3125 12.043 63.2962 11.7337 63.2637 11.4082C63.2376 11.0827 63.1888 10.7604 63.1172 10.4414C63.0456 10.1224 62.9447 9.81966 62.8145 9.5332C62.6908 9.24023 62.528 8.98307 62.3262 8.76172C62.1309 8.53385 61.8932 8.35482 61.6133 8.22461C61.3333 8.0944 61.0078 8.0293 60.6367 8.0293C60.2656 8.0293 59.9434 8.09766 59.6699 8.23438C59.3965 8.36458 59.1621 8.54362 58.9668 8.77148C58.7715 8.99284 58.6087 9.25 58.4785 9.54297C58.3548 9.83594 58.2572 10.1419 58.1855 10.4609C58.1139 10.7799 58.0618 11.1022 58.0293 11.4277C58.0033 11.7467 57.9902 12.0495 57.9902 12.3359C57.9902 12.6224 58.0033 12.9284 58.0293 13.2539C58.0618 13.5794 58.1139 13.9017 58.1855 14.2207C58.2572 14.5397 58.3548 14.8457 58.4785 15.1387C58.6087 15.4316 58.7715 15.6921 58.9668 15.9199C59.1621 16.1413 59.3965 16.3203 59.6699 16.457C59.9434 16.5872 60.2656 16.6523 60.6367 16.6523C60.9753 16.6523 61.2747 16.584 61.5352 16.4473C61.8021 16.304 62.0332 16.1152 62.2285 15.8809C62.4303 15.6465 62.5996 15.3796 62.7363 15.0801C62.873 14.7806 62.9837 14.4714 63.0684 14.1523C63.153 13.8333 63.2148 13.5176 63.2539 13.2051C63.293 12.8861 63.3125 12.5964 63.3125 12.3359ZM72.8633 3.99609C72.8633 4.24349 72.8145 4.47786 72.7168 4.69922C72.6257 4.92057 72.4987 5.11263 72.3359 5.27539C72.1732 5.43815 71.9811 5.56836 71.7598 5.66602C71.5384 5.75716 71.304 5.80273 71.0566 5.80273C70.8092 5.80273 70.5749 5.75716 70.3535 5.66602C70.1387 5.56836 69.9499 5.43815 69.7871 5.27539C69.6243 5.11263 69.4941 4.92057 69.3965 4.69922C69.3053 4.47786 69.2598 4.24349 69.2598 3.99609C69.2598 3.7487 69.3053 3.51758 69.3965 3.30273C69.4941 3.08138 69.6243 2.88932 69.7871 2.72656C69.9499 2.5638 70.1387 2.43685 70.3535 2.3457C70.5749 2.24805 70.8092 2.19922 71.0566 2.19922C71.304 2.19922 71.5384 2.24805 71.7598 2.3457C71.9811 2.43685 72.1732 2.5638 72.3359 2.72656C72.4987 2.88932 72.6257 3.08138 72.7168 3.30273C72.8145 3.51758 72.8633 3.7487 72.8633 3.99609ZM72.7168 18H69.4062V6.73047H72.7168V18ZM87.0234 11.5352C87.0234 12.2969 86.929 13.0911 86.7402 13.918C86.5579 14.7448 86.3008 15.5553 85.9688 16.3496C85.6367 17.1439 85.2396 17.8893 84.7773 18.5859C84.3151 19.2891 83.8073 19.8945 83.2539 20.4023L82.0137 19.7285C82.1895 19.403 82.3555 19.0384 82.5117 18.6348C82.668 18.2311 82.8079 17.8047 82.9316 17.3555C83.0618 16.8997 83.1758 16.431 83.2734 15.9492C83.3776 15.4674 83.4622 14.9922 83.5273 14.5234C83.599 14.0482 83.651 13.5892 83.6836 13.1465C83.7227 12.6973 83.7422 12.2806 83.7422 11.8965C83.7422 11.6426 83.7324 11.3724 83.7129 11.0859C83.6934 10.793 83.651 10.5033 83.5859 10.2168C83.5273 9.92383 83.446 9.64388 83.3418 9.37695C83.2376 9.11003 83.0977 8.87565 82.9219 8.67383C82.7526 8.47201 82.5443 8.30924 82.2969 8.18555C82.056 8.06185 81.7695 8 81.4375 8C81.112 8 80.8223 8.07487 80.5684 8.22461C80.3145 8.36784 80.0898 8.5599 79.8945 8.80078C79.6992 9.03516 79.5299 9.30534 79.3867 9.61133C79.25 9.91732 79.1361 10.2331 79.0449 10.5586C78.9603 10.8776 78.8984 11.1934 78.8594 11.5059C78.8203 11.8184 78.8008 12.0983 78.8008 12.3457V18H75.4902V6.7207H76.7598L78.2734 9.34766C78.4557 8.91146 78.6836 8.51432 78.957 8.15625C79.2305 7.79818 79.5397 7.49219 79.8848 7.23828C80.2298 6.98438 80.6107 6.78906 81.0273 6.65234C81.4505 6.51562 81.9062 6.44727 82.3945 6.44727C83.1758 6.44727 83.8561 6.57422 84.4355 6.82812C85.015 7.08203 85.4967 7.43685 85.8809 7.89258C86.265 8.3418 86.5514 8.87891 86.7402 9.50391C86.929 10.1224 87.0234 10.7995 87.0234 11.5352ZM92.668 3.99609C92.668 4.24349 92.6191 4.47786 92.5215 4.69922C92.4303 4.92057 92.3034 5.11263 92.1406 5.27539C91.9779 5.43815 91.7858 5.56836 91.5645 5.66602C91.3431 5.75716 91.1087 5.80273 90.8613 5.80273C90.6139 5.80273 90.3796 5.75716 90.1582 5.66602C89.9434 5.56836 89.7546 5.43815 89.5918 5.27539C89.429 5.11263 89.2988 4.92057 89.2012 4.69922C89.11 4.47786 89.0645 4.24349 89.0645 3.99609C89.0645 3.7487 89.11 3.51758 89.2012 3.30273C89.2988 3.08138 89.429 2.88932 89.5918 2.72656C89.7546 2.5638 89.9434 2.43685 90.1582 2.3457C90.3796 2.24805 90.6139 2.19922 90.8613 2.19922C91.1087 2.19922 91.3431 2.24805 91.5645 2.3457C91.7858 2.43685 91.9779 2.5638 92.1406 2.72656C92.3034 2.88932 92.4303 3.08138 92.5215 3.30273C92.6191 3.51758 92.668 3.7487 92.668 3.99609ZM92.5215 18H89.2109V6.73047H92.5215V18ZM106.652 18H103.352V16.6523C102.961 17.1862 102.489 17.5833 101.936 17.8438C101.389 18.0977 100.786 18.2246 100.129 18.2246C99.2695 18.2246 98.5013 18.0716 97.8242 17.7656C97.1471 17.4596 96.5742 17.043 96.1055 16.5156C95.6367 15.9818 95.2786 15.3568 95.0312 14.6406C94.7839 13.9245 94.6602 13.1562 94.6602 12.3359C94.6602 11.5156 94.7839 10.7474 95.0312 10.0312C95.2786 9.3151 95.6367 8.69336 96.1055 8.16602C96.5742 7.63216 97.1471 7.21224 97.8242 6.90625C98.5013 6.60026 99.2695 6.44727 100.129 6.44727C100.565 6.44727 100.979 6.51237 101.369 6.64258C101.766 6.77279 102.128 6.95833 102.453 7.19922C102.785 7.43359 103.075 7.72005 103.322 8.05859C103.576 8.39062 103.775 8.76172 103.918 9.17188L105.383 6.7207H106.652V18ZM103.332 12.3359C103.332 12.043 103.316 11.7337 103.283 11.4082C103.257 11.0827 103.208 10.7604 103.137 10.4414C103.065 10.1224 102.964 9.81966 102.834 9.5332C102.71 9.24023 102.548 8.98307 102.346 8.76172C102.15 8.53385 101.913 8.35482 101.633 8.22461C101.353 8.0944 101.027 8.0293 100.656 8.0293C100.285 8.0293 99.9629 8.09766 99.6895 8.23438C99.416 8.36458 99.1816 8.54362 98.9863 8.77148C98.791 8.99284 98.6283 9.25 98.498 9.54297C98.3743 9.83594 98.2767 10.1419 98.2051 10.4609C98.1335 10.7799 98.0814 11.1022 98.0488 11.4277C98.0228 11.7467 98.0098 12.0495 98.0098 12.3359C98.0098 12.6224 98.0228 12.9284 98.0488 13.2539C98.0814 13.5794 98.1335 13.9017 98.2051 14.2207C98.2767 14.5397 98.3743 14.8457 98.498 15.1387C98.6283 15.4316 98.791 15.6921 98.9863 15.9199C99.1816 16.1413 99.416 16.3203 99.6895 16.457C99.9629 16.5872 100.285 16.6523 100.656 16.6523C100.995 16.6523 101.294 16.584 101.555 16.4473C101.822 16.304 102.053 16.1152 102.248 15.8809C102.45 15.6465 102.619 15.3796 102.756 15.0801C102.893 14.7806 103.003 14.4714 103.088 14.1523C103.173 13.8333 103.234 13.5176 103.273 13.2051C103.312 12.8861 103.332 12.5964 103.332 12.3359ZM119.826 9.51367L118.4 10.0801C118.173 9.36393 117.792 8.8138 117.258 8.42969C116.724 8.04557 116.083 7.85352 115.334 7.85352C114.93 7.85352 114.569 7.91862 114.25 8.04883C113.938 8.17253 113.661 8.34505 113.42 8.56641C113.186 8.78776 112.984 9.04492 112.814 9.33789C112.652 9.63086 112.518 9.94336 112.414 10.2754C112.31 10.6074 112.235 10.9525 112.189 11.3105C112.144 11.6621 112.121 12.0039 112.121 12.3359C112.121 12.694 112.141 13.0553 112.18 13.4199C112.219 13.7845 112.284 14.1361 112.375 14.4746C112.473 14.8066 112.6 15.1191 112.756 15.4121C112.912 15.6986 113.107 15.9492 113.342 16.1641C113.583 16.3789 113.866 16.5482 114.191 16.6719C114.523 16.7956 114.904 16.8574 115.334 16.8574C115.679 16.8574 116.008 16.8053 116.32 16.7012C116.633 16.597 116.919 16.4505 117.18 16.2617C117.44 16.0729 117.671 15.8483 117.873 15.5879C118.075 15.3275 118.234 15.0378 118.352 14.7188L119.787 15.2461C119.572 15.7604 119.286 16.2064 118.928 16.584C118.576 16.9551 118.176 17.2643 117.727 17.5117C117.277 17.7526 116.796 17.9316 116.281 18.0488C115.767 18.166 115.246 18.2246 114.719 18.2246C113.866 18.2246 113.075 18.0814 112.346 17.7949C111.617 17.502 110.985 17.0951 110.451 16.5742C109.924 16.0469 109.51 15.4251 109.211 14.709C108.911 13.9863 108.762 13.1953 108.762 12.3359C108.762 11.4701 108.908 10.6758 109.201 9.95312C109.501 9.23047 109.914 8.60872 110.441 8.08789C110.969 7.56706 111.597 7.16341 112.326 6.87695C113.055 6.59049 113.853 6.44727 114.719 6.44727C115.266 6.44727 115.799 6.50911 116.32 6.63281C116.841 6.75 117.323 6.93555 117.766 7.18945C118.215 7.43685 118.615 7.7526 118.967 8.13672C119.325 8.52083 119.611 8.97982 119.826 9.51367ZM131.486 14.3965C131.486 14.8913 131.415 15.3307 131.271 15.7148C131.128 16.099 130.933 16.4342 130.686 16.7207C130.438 17.0007 130.145 17.2383 129.807 17.4336C129.468 17.6224 129.104 17.7754 128.713 17.8926C128.329 18.0098 127.925 18.0944 127.502 18.1465C127.079 18.1986 126.659 18.2246 126.242 18.2246C125.682 18.2246 125.188 18.1888 124.758 18.1172C124.328 18.0456 123.918 17.9316 123.527 17.7754C123.137 17.6126 122.746 17.4043 122.355 17.1504C121.971 16.8965 121.542 16.5872 121.066 16.2227L122.99 14.6504C123.166 14.9824 123.397 15.2852 123.684 15.5586C123.977 15.8255 124.279 16.0566 124.592 16.252C124.904 16.4473 125.207 16.597 125.5 16.7012C125.793 16.8053 126.031 16.8574 126.213 16.8574C126.363 16.8574 126.532 16.8542 126.721 16.8477C126.91 16.8346 127.102 16.8151 127.297 16.7891C127.492 16.7565 127.684 16.7109 127.873 16.6523C128.062 16.5938 128.228 16.5156 128.371 16.418C128.521 16.3138 128.638 16.1868 128.723 16.0371C128.814 15.8809 128.859 15.6953 128.859 15.4805C128.859 15.2591 128.801 15.0671 128.684 14.9043C128.573 14.735 128.426 14.5885 128.244 14.4648C128.062 14.3411 127.854 14.237 127.619 14.1523C127.385 14.0677 127.147 13.9928 126.906 13.9277C126.672 13.8626 126.444 13.8073 126.223 13.7617C126.001 13.7096 125.809 13.6608 125.646 13.6152C125.347 13.5306 125.031 13.446 124.699 13.3613C124.367 13.2702 124.038 13.1693 123.713 13.0586C123.387 12.9414 123.075 12.8047 122.775 12.6484C122.482 12.4922 122.222 12.3066 121.994 12.0918C121.773 11.8704 121.594 11.6133 121.457 11.3203C121.327 11.0208 121.262 10.6725 121.262 10.2754C121.262 9.54622 121.405 8.9375 121.691 8.44922C121.984 7.95443 122.368 7.56055 122.844 7.26758C123.319 6.9681 123.859 6.75651 124.465 6.63281C125.07 6.50911 125.686 6.44727 126.311 6.44727C126.74 6.44727 127.193 6.49284 127.668 6.58398C128.143 6.66862 128.605 6.79883 129.055 6.97461C129.504 7.14388 129.924 7.35221 130.314 7.59961C130.705 7.84701 131.031 8.13021 131.291 8.44922L129.367 10.0312C129.224 9.64062 129.035 9.30534 128.801 9.02539C128.573 8.74544 128.322 8.51758 128.049 8.3418C127.782 8.15951 127.505 8.02604 127.219 7.94141C126.939 7.85677 126.678 7.81445 126.438 7.81445C126.203 7.81445 125.939 7.82422 125.646 7.84375C125.354 7.86328 125.077 7.91862 124.816 8.00977C124.562 8.10091 124.344 8.24089 124.162 8.42969C123.986 8.61198 123.898 8.86589 123.898 9.19141C123.898 9.42578 123.951 9.6276 124.055 9.79688C124.165 9.95964 124.309 10.1029 124.484 10.2266C124.66 10.3438 124.859 10.4447 125.08 10.5293C125.308 10.6074 125.539 10.679 125.773 10.7441C126.008 10.8027 126.236 10.8548 126.457 10.9004C126.678 10.946 126.877 10.9948 127.053 11.0469C127.352 11.1315 127.668 11.2194 128 11.3105C128.339 11.3952 128.671 11.4961 128.996 11.6133C129.322 11.724 129.634 11.8574 129.934 12.0137C130.24 12.1634 130.507 12.349 130.734 12.5703C130.962 12.7917 131.145 13.0521 131.281 13.3516C131.418 13.6445 131.486 13.9928 131.486 14.3965Z" fill="black"/>
<path d="M138.179 16H137.256L139.926 8.72727H140.835L143.506 16H142.582L140.409 9.87784H140.352L138.179 16ZM138.52 13.1591H142.241V13.9403H138.52V13.1591ZM146.585 16.1136C146.13 16.1136 145.729 15.9988 145.381 15.7692C145.033 15.5372 144.76 15.2105 144.564 14.7891C144.367 14.3653 144.269 13.8646 144.269 13.2869C144.269 12.714 144.367 12.2169 144.564 11.7955C144.76 11.3741 145.034 11.0485 145.384 10.8189C145.735 10.5893 146.139 10.4744 146.599 10.4744C146.954 10.4744 147.234 10.5336 147.44 10.652C147.649 10.768 147.807 10.9006 147.916 11.0497C148.027 11.1965 148.114 11.3172 148.175 11.4119H148.246V8.72727H149.085V16H148.275V15.1619H148.175C148.114 15.2614 148.026 15.3868 147.913 15.5384C147.799 15.6875 147.637 15.8213 147.426 15.9396C147.215 16.0556 146.935 16.1136 146.585 16.1136ZM146.698 15.3608C147.034 15.3608 147.318 15.2732 147.55 15.098C147.782 14.9205 147.959 14.6754 148.08 14.3629C148.2 14.0481 148.261 13.6847 148.261 13.2727C148.261 12.8655 148.201 12.5092 148.083 12.2038C147.965 11.8961 147.79 11.657 147.558 11.4865C147.326 11.3137 147.039 11.2273 146.698 11.2273C146.343 11.2273 146.047 11.3184 145.81 11.5007C145.576 11.6806 145.4 11.9257 145.281 12.2358C145.165 12.5436 145.107 12.8892 145.107 13.2727C145.107 13.661 145.166 14.0137 145.285 14.331C145.406 14.6458 145.583 14.8968 145.817 15.0838C146.054 15.2685 146.348 15.3608 146.698 15.3608ZM150.736 16V10.5455H151.545V11.3977H151.616C151.73 11.1065 151.914 10.8804 152.167 10.7195C152.42 10.5561 152.724 10.4744 153.08 10.4744C153.439 10.4744 153.739 10.5561 153.978 10.7195C154.219 10.8804 154.408 11.1065 154.543 11.3977H154.599C154.739 11.116 154.949 10.8923 155.228 10.7266C155.507 10.5585 155.842 10.4744 156.233 10.4744C156.721 10.4744 157.12 10.6271 157.43 10.9325C157.74 11.2356 157.895 11.7079 157.895 12.3494V16H157.057V12.3494C157.057 11.947 156.947 11.6593 156.727 11.4865C156.506 11.3137 156.247 11.2273 155.949 11.2273C155.565 11.2273 155.268 11.3433 155.058 11.5753C154.847 11.8049 154.741 12.0961 154.741 12.4489V16H153.889V12.2642C153.889 11.9541 153.789 11.7043 153.587 11.5149C153.386 11.3232 153.127 11.2273 152.81 11.2273C152.592 11.2273 152.388 11.2853 152.199 11.4013C152.012 11.5173 151.86 11.6783 151.744 11.8842C151.631 12.0878 151.574 12.3234 151.574 12.5909V16H150.736ZM159.427 16V10.5455H160.265V16H159.427ZM159.853 9.63636C159.69 9.63636 159.549 9.58073 159.431 9.46946C159.315 9.35819 159.257 9.22443 159.257 9.06818C159.257 8.91193 159.315 8.77817 159.431 8.6669C159.549 8.55563 159.69 8.5 159.853 8.5C160.017 8.5 160.156 8.55563 160.272 8.6669C160.391 8.77817 160.45 8.91193 160.45 9.06818C160.45 9.22443 160.391 9.35819 160.272 9.46946C160.156 9.58073 160.017 9.63636 159.853 9.63636ZM162.638 12.7188V16H161.8V10.5455H162.61V11.3977H162.681C162.809 11.1207 163.003 10.8982 163.263 10.7301C163.524 10.5597 163.86 10.4744 164.272 10.4744C164.641 10.4744 164.964 10.5502 165.241 10.7017C165.518 10.8509 165.734 11.0781 165.888 11.3835C166.041 11.6866 166.118 12.0701 166.118 12.5341V16H165.28V12.5909C165.28 12.1624 165.169 11.8286 164.947 11.5895C164.724 11.348 164.419 11.2273 164.03 11.2273C163.763 11.2273 163.524 11.2853 163.313 11.4013C163.105 11.5173 162.94 11.6866 162.819 11.9091C162.699 12.1316 162.638 12.4015 162.638 12.7188Z" fill="black" fill-opacity="0.5"/>
</svg>
