<svg width="136" height="24" viewBox="0 0 136 24" fill="none" xmlns="http://www.w3.org/2000/svg">
<path d="M9.66592 20.9543C8.83292 20.9543 8.11842 20.6418 7.52242 20.0168C6.92642 19.3918 6.58951 18.6793 6.51167 17.8793C5.52551 17.7903 4.70117 17.3763 4.03867 16.6373C3.37617 15.8985 3.04492 15.0078 3.04492 13.9651C3.04492 13.6066 3.09076 13.2563 3.18242 12.9141C3.27409 12.5719 3.41159 12.245 3.59492 11.9333C3.41159 11.6362 3.27409 11.3205 3.18242 10.9863C3.09076 10.652 3.04492 10.2955 3.04492 9.91685C3.04492 8.92818 3.38801 8.07335 4.07417 7.35235C4.76034 6.63135 5.58092 6.20976 6.53592 6.0876C6.56692 5.2376 6.88592 4.51676 7.49292 3.9251C8.09976 3.33343 8.82867 3.0376 9.67967 3.0376C10.1565 3.0376 10.581 3.12593 10.9532 3.3026C11.3252 3.47943 11.6738 3.72718 11.9992 4.04585C12.3297 3.73201 12.6769 3.48551 13.0409 3.30635C13.4048 3.12718 13.8242 3.0376 14.2992 3.0376C15.1353 3.0376 15.8541 3.3341 16.4554 3.9271C17.0568 4.52026 17.3811 5.24185 17.4284 6.09185C18.3894 6.19185 19.2186 6.60318 19.9159 7.32585C20.6131 8.04868 20.9617 8.91126 20.9617 9.9136C20.9617 10.2964 20.9117 10.6573 20.8117 10.9961C20.7117 11.3349 20.5728 11.655 20.3949 11.9563C20.5728 12.2743 20.7117 12.6123 20.8117 12.9703C20.9117 13.3282 20.9617 13.6818 20.9617 14.0313C20.9617 15.0855 20.6283 15.9703 19.9617 16.6856C19.295 17.4008 18.47 17.7987 17.4867 17.8793C17.4033 18.6793 17.0639 19.3918 16.4684 20.0168C15.8731 20.6418 15.1611 20.9543 14.3324 20.9543C13.8519 20.9543 13.4283 20.871 13.0617 20.7043C12.695 20.5378 12.3408 20.2933 11.9992 19.9708C11.652 20.2932 11.2964 20.5377 10.9324 20.7043C10.5686 20.871 10.1464 20.9543 9.66592 20.9543ZM12.7949 6.08335V17.9168C12.7949 18.3217 12.9473 18.6653 13.2522 18.9476C13.5568 19.2298 13.9229 19.3708 14.3504 19.3708C14.7608 19.3708 15.1159 19.2008 15.4159 18.8606C15.7159 18.5203 15.8812 18.1348 15.9117 17.7043C15.5313 17.5765 15.1818 17.3987 14.8632 17.1708C14.5443 16.9432 14.2674 16.6654 14.0324 16.3376C13.8991 16.1543 13.8498 15.9578 13.8847 15.7481C13.9193 15.5383 14.0298 15.3667 14.2159 15.2333C14.4019 15.1 14.5998 15.0508 14.8097 15.0856C15.0193 15.1203 15.1908 15.2293 15.3242 15.4126C15.5323 15.7096 15.7946 15.9353 16.1109 16.0896C16.4274 16.2438 16.7679 16.3208 17.1324 16.3208C17.7553 16.3208 18.2853 16.1075 18.7224 15.6808C19.1598 15.254 19.3784 14.7048 19.3784 14.0333C19.3784 13.8945 19.3638 13.7528 19.3347 13.6083C19.3055 13.464 19.2743 13.3168 19.2409 13.1668C18.9489 13.3695 18.6265 13.5237 18.2737 13.6293C17.921 13.7348 17.5518 13.7876 17.1659 13.7876C16.9409 13.7876 16.7534 13.7126 16.6034 13.5626C16.4534 13.4126 16.3784 13.2251 16.3784 13.0001C16.3784 12.7751 16.4534 12.5862 16.6034 12.4333C16.7534 12.2807 16.9409 12.2043 17.1659 12.2043C17.7841 12.2043 18.3073 11.9798 18.7357 11.5308C19.1642 11.0818 19.3784 10.5438 19.3784 9.91685C19.3784 9.30518 19.1472 8.78001 18.6847 8.34135C18.2222 7.90268 17.6978 7.6681 17.1117 7.6376C16.9408 8.00976 16.7043 8.3351 16.4019 8.6136C16.0996 8.89193 15.757 9.10268 15.3742 9.24585C15.163 9.33202 14.9609 9.32785 14.7679 9.23335C14.5749 9.13901 14.4437 8.98626 14.3742 8.7751C14.3047 8.56393 14.3137 8.3591 14.4012 8.1606C14.4887 7.96193 14.638 7.82651 14.8492 7.75435C15.1437 7.65701 15.3833 7.46768 15.5679 7.18635C15.7526 6.90501 15.8449 6.58593 15.8449 6.2291C15.8449 5.7876 15.6948 5.40918 15.3947 5.09385C15.0945 4.77851 14.7355 4.62085 14.3177 4.62085C13.8998 4.62085 13.5416 4.76276 13.2429 5.0466C12.9443 5.3306 12.7949 5.67618 12.7949 6.08335ZM11.2117 17.9168V6.08335C11.2117 5.67618 11.0643 5.3306 10.7697 5.0466C10.4752 4.76276 10.1134 4.62085 9.68442 4.62085C9.26642 4.62085 8.90534 4.77868 8.60117 5.09435C8.297 5.40985 8.14492 5.7916 8.14492 6.2396C8.14492 6.5911 8.23176 6.90435 8.40542 7.17935C8.57909 7.45435 8.81309 7.64043 9.10742 7.7376C9.31859 7.80976 9.47209 7.9461 9.56792 8.1466C9.66375 8.34693 9.67834 8.54535 9.61167 8.74185C9.52417 8.95185 9.38076 9.1071 9.18142 9.2076C8.98209 9.3081 8.77692 9.31535 8.56592 9.22935C8.18309 9.09718 7.84326 8.89193 7.54642 8.6136C7.24959 8.3351 7.01859 8.00976 6.85342 7.6376C6.27009 7.68476 5.75342 7.92293 5.30342 8.3521C4.85342 8.78126 4.62842 9.30285 4.62842 9.91685C4.62842 10.5438 4.84176 11.0818 5.26842 11.5308C5.69526 11.9798 6.21659 12.2043 6.83242 12.2043C7.05742 12.2043 7.24634 12.2807 7.39917 12.4333C7.55201 12.5862 7.62842 12.7751 7.62842 13.0001C7.62842 13.2251 7.55201 13.4126 7.39917 13.5626C7.24634 13.7126 7.05742 13.7876 6.83242 13.7876C6.45142 13.7876 6.08609 13.7341 5.73642 13.6271C5.38659 13.5203 5.06442 13.3682 4.76992 13.1708C4.71992 13.3042 4.68384 13.4389 4.66167 13.5751C4.63951 13.7113 4.62842 13.8473 4.62842 13.9833C4.62842 14.6548 4.84284 15.2123 5.27167 15.6558C5.70067 16.0992 6.22651 16.3208 6.84917 16.3208C7.20467 16.3208 7.54292 16.2409 7.86392 16.0811C8.18476 15.9213 8.44925 15.6984 8.65742 15.4126C8.79075 15.2348 8.96367 15.1271 9.17617 15.0896C9.38867 15.0521 9.58526 15.1 9.76592 15.2333C9.94642 15.3667 10.0554 15.5402 10.0929 15.7538C10.1304 15.9673 10.0825 16.1619 9.94917 16.3376C9.71417 16.6648 9.43725 16.942 9.11842 17.1693C8.79976 17.3967 8.45584 17.5763 8.08667 17.7083C8.11167 18.1333 8.27484 18.5167 8.57617 18.8583C8.87767 19.2 9.24092 19.3708 9.66592 19.3708C10.0954 19.3708 10.4604 19.2298 10.7609 18.9476C11.0614 18.6653 11.2117 18.3217 11.2117 17.9168Z" fill="black"/>
<path d="M45.541 14.1816C45.541 14.5788 45.4759 14.9499 45.3457 15.2949C45.2155 15.64 45.0365 15.9557 44.8086 16.2422C44.5807 16.5221 44.3138 16.7728 44.0078 16.9941C43.7083 17.2155 43.3828 17.401 43.0312 17.5508C42.6862 17.7005 42.3281 17.8145 41.957 17.8926C41.5859 17.9642 41.2214 18 40.8633 18H32.5918V3.9375H40.1504C40.4824 3.9375 40.8307 3.96354 41.1953 4.01562C41.5599 4.0612 41.9147 4.13607 42.2598 4.24023C42.6113 4.3444 42.9434 4.48112 43.2559 4.65039C43.5749 4.81966 43.8516 5.02799 44.0859 5.27539C44.3268 5.51628 44.5156 5.79622 44.6523 6.11523C44.7956 6.43424 44.8672 6.79883 44.8672 7.20898C44.8672 7.59961 44.7891 7.95443 44.6328 8.27344C44.4766 8.59245 44.265 8.87891 43.998 9.13281C43.7376 9.38021 43.4349 9.60156 43.0898 9.79688C42.7513 9.98568 42.3932 10.1517 42.0156 10.2949C42.4909 10.4251 42.9401 10.5977 43.3633 10.8125C43.793 11.0273 44.1673 11.291 44.4863 11.6035C44.8118 11.916 45.069 12.2871 45.2578 12.7168C45.4466 13.14 45.541 13.6283 45.541 14.1816ZM40.9316 7.55078C40.9316 6.75651 40.7201 6.17708 40.2969 5.8125C39.8802 5.44792 39.2845 5.26562 38.5098 5.26562H36.4688V9.82617H38.1777C38.5293 9.82617 38.8711 9.78385 39.2031 9.69922C39.5352 9.60807 39.8281 9.47135 40.082 9.28906C40.3424 9.10026 40.5475 8.86263 40.6973 8.57617C40.8535 8.28971 40.9316 7.94792 40.9316 7.55078ZM41.6152 13.9375C41.6152 13.5534 41.5664 13.1953 41.4688 12.8633C41.3711 12.5247 41.2214 12.235 41.0195 11.9941C40.8177 11.7467 40.5638 11.5547 40.2578 11.418C39.9583 11.2747 39.6035 11.2031 39.1934 11.2031H36.4688V16.6328H38.8516C39.2487 16.6328 39.6165 16.5677 39.9551 16.4375C40.2936 16.3073 40.5866 16.125 40.834 15.8906C41.0814 15.6562 41.2734 15.373 41.4102 15.041C41.5469 14.709 41.6152 14.3411 41.6152 13.9375ZM57.123 7.7168L55.2676 10.793C55.1895 10.5326 55.0885 10.2396 54.9648 9.91406C54.8411 9.58854 54.6882 9.28581 54.5059 9.00586C54.3236 8.7194 54.1055 8.48177 53.8516 8.29297C53.5977 8.09766 53.3047 8 52.9727 8C52.6667 8 52.3997 8.07812 52.1719 8.23438C51.9505 8.39062 51.7617 8.5957 51.6055 8.84961C51.4492 9.09701 51.319 9.38021 51.2148 9.69922C51.1172 10.0117 51.0391 10.3307 50.9805 10.6562C50.9284 10.9753 50.8926 11.2845 50.873 11.584C50.8535 11.877 50.8438 12.1309 50.8438 12.3457V18H47.5332V6.7207H48.8027L50.1406 9.34766C50.3229 8.92448 50.5312 8.53711 50.7656 8.18555C51 7.82747 51.2702 7.52148 51.5762 7.26758C51.8822 7.00716 52.2272 6.80534 52.6113 6.66211C53.002 6.51888 53.4414 6.44727 53.9297 6.44727C54.1836 6.44727 54.4668 6.47005 54.7793 6.51562C55.0918 6.55469 55.3978 6.6263 55.6973 6.73047C55.9967 6.82812 56.2734 6.95833 56.5273 7.12109C56.7812 7.28385 56.9798 7.48242 57.123 7.7168ZM69.6328 18H66.332V16.6523C65.9414 17.1862 65.4694 17.5833 64.916 17.8438C64.3691 18.0977 63.7669 18.2246 63.1094 18.2246C62.25 18.2246 61.4818 18.0716 60.8047 17.7656C60.1276 17.4596 59.5547 17.043 59.0859 16.5156C58.6172 15.9818 58.2591 15.3568 58.0117 14.6406C57.7643 13.9245 57.6406 13.1562 57.6406 12.3359C57.6406 11.5156 57.7643 10.7474 58.0117 10.0312C58.2591 9.3151 58.6172 8.69336 59.0859 8.16602C59.5547 7.63216 60.1276 7.21224 60.8047 6.90625C61.4818 6.60026 62.25 6.44727 63.1094 6.44727C63.5456 6.44727 63.959 6.51237 64.3496 6.64258C64.7467 6.77279 65.1081 6.95833 65.4336 7.19922C65.7656 7.43359 66.0553 7.72005 66.3027 8.05859C66.5566 8.39062 66.7552 8.76172 66.8984 9.17188L68.3633 6.7207H69.6328V18ZM66.3125 12.3359C66.3125 12.043 66.2962 11.7337 66.2637 11.4082C66.2376 11.0827 66.1888 10.7604 66.1172 10.4414C66.0456 10.1224 65.9447 9.81966 65.8145 9.5332C65.6908 9.24023 65.528 8.98307 65.3262 8.76172C65.1309 8.53385 64.8932 8.35482 64.6133 8.22461C64.3333 8.0944 64.0078 8.0293 63.6367 8.0293C63.2656 8.0293 62.9434 8.09766 62.6699 8.23438C62.3965 8.36458 62.1621 8.54362 61.9668 8.77148C61.7715 8.99284 61.6087 9.25 61.4785 9.54297C61.3548 9.83594 61.2572 10.1419 61.1855 10.4609C61.1139 10.7799 61.0618 11.1022 61.0293 11.4277C61.0033 11.7467 60.9902 12.0495 60.9902 12.3359C60.9902 12.6224 61.0033 12.9284 61.0293 13.2539C61.0618 13.5794 61.1139 13.9017 61.1855 14.2207C61.2572 14.5397 61.3548 14.8457 61.4785 15.1387C61.6087 15.4316 61.7715 15.6921 61.9668 15.9199C62.1621 16.1413 62.3965 16.3203 62.6699 16.457C62.9434 16.5872 63.2656 16.6523 63.6367 16.6523C63.9753 16.6523 64.2747 16.584 64.5352 16.4473C64.8021 16.304 65.0332 16.1152 65.2285 15.8809C65.4303 15.6465 65.5996 15.3796 65.7363 15.0801C65.873 14.7806 65.9837 14.4714 66.0684 14.1523C66.153 13.8333 66.2148 13.5176 66.2539 13.2051C66.293 12.8861 66.3125 12.5964 66.3125 12.3359ZM75.8633 3.99609C75.8633 4.24349 75.8145 4.47786 75.7168 4.69922C75.6257 4.92057 75.4987 5.11263 75.3359 5.27539C75.1732 5.43815 74.9811 5.56836 74.7598 5.66602C74.5384 5.75716 74.304 5.80273 74.0566 5.80273C73.8092 5.80273 73.5749 5.75716 73.3535 5.66602C73.1387 5.56836 72.9499 5.43815 72.7871 5.27539C72.6243 5.11263 72.4941 4.92057 72.3965 4.69922C72.3053 4.47786 72.2598 4.24349 72.2598 3.99609C72.2598 3.7487 72.3053 3.51758 72.3965 3.30273C72.4941 3.08138 72.6243 2.88932 72.7871 2.72656C72.9499 2.5638 73.1387 2.43685 73.3535 2.3457C73.5749 2.24805 73.8092 2.19922 74.0566 2.19922C74.304 2.19922 74.5384 2.24805 74.7598 2.3457C74.9811 2.43685 75.1732 2.5638 75.3359 2.72656C75.4987 2.88932 75.6257 3.08138 75.7168 3.30273C75.8145 3.51758 75.8633 3.7487 75.8633 3.99609ZM75.7168 18H72.4062V6.73047H75.7168V18ZM90.0234 11.5352C90.0234 12.2969 89.929 13.0911 89.7402 13.918C89.5579 14.7448 89.3008 15.5553 88.9688 16.3496C88.6367 17.1439 88.2396 17.8893 87.7773 18.5859C87.3151 19.2891 86.8073 19.8945 86.2539 20.4023L85.0137 19.7285C85.1895 19.403 85.3555 19.0384 85.5117 18.6348C85.668 18.2311 85.8079 17.8047 85.9316 17.3555C86.0618 16.8997 86.1758 16.431 86.2734 15.9492C86.3776 15.4674 86.4622 14.9922 86.5273 14.5234C86.599 14.0482 86.651 13.5892 86.6836 13.1465C86.7227 12.6973 86.7422 12.2806 86.7422 11.8965C86.7422 11.6426 86.7324 11.3724 86.7129 11.0859C86.6934 10.793 86.651 10.5033 86.5859 10.2168C86.5273 9.92383 86.446 9.64388 86.3418 9.37695C86.2376 9.11003 86.0977 8.87565 85.9219 8.67383C85.7526 8.47201 85.5443 8.30924 85.2969 8.18555C85.056 8.06185 84.7695 8 84.4375 8C84.112 8 83.8223 8.07487 83.5684 8.22461C83.3145 8.36784 83.0898 8.5599 82.8945 8.80078C82.6992 9.03516 82.5299 9.30534 82.3867 9.61133C82.25 9.91732 82.1361 10.2331 82.0449 10.5586C81.9603 10.8776 81.8984 11.1934 81.8594 11.5059C81.8203 11.8184 81.8008 12.0983 81.8008 12.3457V18H78.4902V6.7207H79.7598L81.2734 9.34766C81.4557 8.91146 81.6836 8.51432 81.957 8.15625C82.2305 7.79818 82.5397 7.49219 82.8848 7.23828C83.2298 6.98438 83.6107 6.78906 84.0273 6.65234C84.4505 6.51562 84.9062 6.44727 85.3945 6.44727C86.1758 6.44727 86.8561 6.57422 87.4355 6.82812C88.015 7.08203 88.4967 7.43685 88.8809 7.89258C89.265 8.3418 89.5514 8.87891 89.7402 9.50391C89.929 10.1224 90.0234 10.7995 90.0234 11.5352ZM95.668 3.99609C95.668 4.24349 95.6191 4.47786 95.5215 4.69922C95.4303 4.92057 95.3034 5.11263 95.1406 5.27539C94.9779 5.43815 94.7858 5.56836 94.5645 5.66602C94.3431 5.75716 94.1087 5.80273 93.8613 5.80273C93.6139 5.80273 93.3796 5.75716 93.1582 5.66602C92.9434 5.56836 92.7546 5.43815 92.5918 5.27539C92.429 5.11263 92.2988 4.92057 92.2012 4.69922C92.11 4.47786 92.0645 4.24349 92.0645 3.99609C92.0645 3.7487 92.11 3.51758 92.2012 3.30273C92.2988 3.08138 92.429 2.88932 92.5918 2.72656C92.7546 2.5638 92.9434 2.43685 93.1582 2.3457C93.3796 2.24805 93.6139 2.19922 93.8613 2.19922C94.1087 2.19922 94.3431 2.24805 94.5645 2.3457C94.7858 2.43685 94.9779 2.5638 95.1406 2.72656C95.3034 2.88932 95.4303 3.08138 95.5215 3.30273C95.6191 3.51758 95.668 3.7487 95.668 3.99609ZM95.5215 18H92.2109V6.73047H95.5215V18ZM109.652 18H106.352V16.6523C105.961 17.1862 105.489 17.5833 104.936 17.8438C104.389 18.0977 103.786 18.2246 103.129 18.2246C102.27 18.2246 101.501 18.0716 100.824 17.7656C100.147 17.4596 99.5742 17.043 99.1055 16.5156C98.6367 15.9818 98.2786 15.3568 98.0312 14.6406C97.7839 13.9245 97.6602 13.1562 97.6602 12.3359C97.6602 11.5156 97.7839 10.7474 98.0312 10.0312C98.2786 9.3151 98.6367 8.69336 99.1055 8.16602C99.5742 7.63216 100.147 7.21224 100.824 6.90625C101.501 6.60026 102.27 6.44727 103.129 6.44727C103.565 6.44727 103.979 6.51237 104.369 6.64258C104.766 6.77279 105.128 6.95833 105.453 7.19922C105.785 7.43359 106.075 7.72005 106.322 8.05859C106.576 8.39062 106.775 8.76172 106.918 9.17188L108.383 6.7207H109.652V18ZM106.332 12.3359C106.332 12.043 106.316 11.7337 106.283 11.4082C106.257 11.0827 106.208 10.7604 106.137 10.4414C106.065 10.1224 105.964 9.81966 105.834 9.5332C105.71 9.24023 105.548 8.98307 105.346 8.76172C105.15 8.53385 104.913 8.35482 104.633 8.22461C104.353 8.0944 104.027 8.0293 103.656 8.0293C103.285 8.0293 102.963 8.09766 102.689 8.23438C102.416 8.36458 102.182 8.54362 101.986 8.77148C101.791 8.99284 101.628 9.25 101.498 9.54297C101.374 9.83594 101.277 10.1419 101.205 10.4609C101.133 10.7799 101.081 11.1022 101.049 11.4277C101.023 11.7467 101.01 12.0495 101.01 12.3359C101.01 12.6224 101.023 12.9284 101.049 13.2539C101.081 13.5794 101.133 13.9017 101.205 14.2207C101.277 14.5397 101.374 14.8457 101.498 15.1387C101.628 15.4316 101.791 15.6921 101.986 15.9199C102.182 16.1413 102.416 16.3203 102.689 16.457C102.963 16.5872 103.285 16.6523 103.656 16.6523C103.995 16.6523 104.294 16.584 104.555 16.4473C104.822 16.304 105.053 16.1152 105.248 15.8809C105.45 15.6465 105.619 15.3796 105.756 15.0801C105.893 14.7806 106.003 14.4714 106.088 14.1523C106.173 13.8333 106.234 13.5176 106.273 13.2051C106.312 12.8861 106.332 12.5964 106.332 12.3359ZM122.826 9.51367L121.4 10.0801C121.173 9.36393 120.792 8.8138 120.258 8.42969C119.724 8.04557 119.083 7.85352 118.334 7.85352C117.93 7.85352 117.569 7.91862 117.25 8.04883C116.938 8.17253 116.661 8.34505 116.42 8.56641C116.186 8.78776 115.984 9.04492 115.814 9.33789C115.652 9.63086 115.518 9.94336 115.414 10.2754C115.31 10.6074 115.235 10.9525 115.189 11.3105C115.144 11.6621 115.121 12.0039 115.121 12.3359C115.121 12.694 115.141 13.0553 115.18 13.4199C115.219 13.7845 115.284 14.1361 115.375 14.4746C115.473 14.8066 115.6 15.1191 115.756 15.4121C115.912 15.6986 116.107 15.9492 116.342 16.1641C116.583 16.3789 116.866 16.5482 117.191 16.6719C117.523 16.7956 117.904 16.8574 118.334 16.8574C118.679 16.8574 119.008 16.8053 119.32 16.7012C119.633 16.597 119.919 16.4505 120.18 16.2617C120.44 16.0729 120.671 15.8483 120.873 15.5879C121.075 15.3275 121.234 15.0378 121.352 14.7188L122.787 15.2461C122.572 15.7604 122.286 16.2064 121.928 16.584C121.576 16.9551 121.176 17.2643 120.727 17.5117C120.277 17.7526 119.796 17.9316 119.281 18.0488C118.767 18.166 118.246 18.2246 117.719 18.2246C116.866 18.2246 116.075 18.0814 115.346 17.7949C114.617 17.502 113.985 17.0951 113.451 16.5742C112.924 16.0469 112.51 15.4251 112.211 14.709C111.911 13.9863 111.762 13.1953 111.762 12.3359C111.762 11.4701 111.908 10.6758 112.201 9.95312C112.501 9.23047 112.914 8.60872 113.441 8.08789C113.969 7.56706 114.597 7.16341 115.326 6.87695C116.055 6.59049 116.853 6.44727 117.719 6.44727C118.266 6.44727 118.799 6.50911 119.32 6.63281C119.841 6.75 120.323 6.93555 120.766 7.18945C121.215 7.43685 121.615 7.7526 121.967 8.13672C122.325 8.52083 122.611 8.97982 122.826 9.51367ZM134.486 14.3965C134.486 14.8913 134.415 15.3307 134.271 15.7148C134.128 16.099 133.933 16.4342 133.686 16.7207C133.438 17.0007 133.145 17.2383 132.807 17.4336C132.468 17.6224 132.104 17.7754 131.713 17.8926C131.329 18.0098 130.925 18.0944 130.502 18.1465C130.079 18.1986 129.659 18.2246 129.242 18.2246C128.682 18.2246 128.188 18.1888 127.758 18.1172C127.328 18.0456 126.918 17.9316 126.527 17.7754C126.137 17.6126 125.746 17.4043 125.355 17.1504C124.971 16.8965 124.542 16.5872 124.066 16.2227L125.99 14.6504C126.166 14.9824 126.397 15.2852 126.684 15.5586C126.977 15.8255 127.279 16.0566 127.592 16.252C127.904 16.4473 128.207 16.597 128.5 16.7012C128.793 16.8053 129.031 16.8574 129.213 16.8574C129.363 16.8574 129.532 16.8542 129.721 16.8477C129.91 16.8346 130.102 16.8151 130.297 16.7891C130.492 16.7565 130.684 16.7109 130.873 16.6523C131.062 16.5938 131.228 16.5156 131.371 16.418C131.521 16.3138 131.638 16.1868 131.723 16.0371C131.814 15.8809 131.859 15.6953 131.859 15.4805C131.859 15.2591 131.801 15.0671 131.684 14.9043C131.573 14.735 131.426 14.5885 131.244 14.4648C131.062 14.3411 130.854 14.237 130.619 14.1523C130.385 14.0677 130.147 13.9928 129.906 13.9277C129.672 13.8626 129.444 13.8073 129.223 13.7617C129.001 13.7096 128.809 13.6608 128.646 13.6152C128.347 13.5306 128.031 13.446 127.699 13.3613C127.367 13.2702 127.038 13.1693 126.713 13.0586C126.387 12.9414 126.075 12.8047 125.775 12.6484C125.482 12.4922 125.222 12.3066 124.994 12.0918C124.773 11.8704 124.594 11.6133 124.457 11.3203C124.327 11.0208 124.262 10.6725 124.262 10.2754C124.262 9.54622 124.405 8.9375 124.691 8.44922C124.984 7.95443 125.368 7.56055 125.844 7.26758C126.319 6.9681 126.859 6.75651 127.465 6.63281C128.07 6.50911 128.686 6.44727 129.311 6.44727C129.74 6.44727 130.193 6.49284 130.668 6.58398C131.143 6.66862 131.605 6.79883 132.055 6.97461C132.504 7.14388 132.924 7.35221 133.314 7.59961C133.705 7.84701 134.031 8.13021 134.291 8.44922L132.367 10.0312C132.224 9.64062 132.035 9.30534 131.801 9.02539C131.573 8.74544 131.322 8.51758 131.049 8.3418C130.782 8.15951 130.505 8.02604 130.219 7.94141C129.939 7.85677 129.678 7.81445 129.438 7.81445C129.203 7.81445 128.939 7.82422 128.646 7.84375C128.354 7.86328 128.077 7.91862 127.816 8.00977C127.562 8.10091 127.344 8.24089 127.162 8.42969C126.986 8.61198 126.898 8.86589 126.898 9.19141C126.898 9.42578 126.951 9.6276 127.055 9.79688C127.165 9.95964 127.309 10.1029 127.484 10.2266C127.66 10.3438 127.859 10.4447 128.08 10.5293C128.308 10.6074 128.539 10.679 128.773 10.7441C129.008 10.8027 129.236 10.8548 129.457 10.9004C129.678 10.946 129.877 10.9948 130.053 11.0469C130.352 11.1315 130.668 11.2194 131 11.3105C131.339 11.3952 131.671 11.4961 131.996 11.6133C132.322 11.724 132.634 11.8574 132.934 12.0137C133.24 12.1634 133.507 12.349 133.734 12.5703C133.962 12.7917 134.145 13.0521 134.281 13.3516C134.418 13.6445 134.486 13.9928 134.486 14.3965Z" fill="black"/>
</svg>
